# xmcd
#
# Track frame offsets:
# 150
# 17409
# 31367
# 58959
# 73444
# 85921
# 115663
# 131946
#
# Disc length: 2214 seconds
#
#
# Revision: 0
# Processed by: cddbd v1.5.1PL2 Copyright (c) Steve Scherf et al.
# Submitted via: FreeRIP 2.945 
#
DISCID=7108a408
DTITLE=Campo Bravo - Goodbye, Oklahoma
DYEAR=2006
DGENRE=alt-country
TTITLE0=Haste/Waste
TTITLE1=The Former Ms. Oklahoma
TTITLE2=Magic Carpet
TTITLE3=End Of Poetry
TTITLE4=Incinerated
TTITLE5=She Is You
TTITLE6=Amateurs
TTITLE7=Collision Course
EXTD=
EXTT0=
EXTT1=
EXTT2=
EXTT3=
EXTT4=
EXTT5=
EXTT6=
EXTT7=
PLAYORDER=
